<?xml version="1.0" standalone="no"?>
<!DOCTYPE svg PUBLIC "-//W3C//DTD SVG 20010904//EN"
 "http://www.w3.org/TR/2001/REC-SVG-20010904/DTD/svg10.dtd">
<svg version="1.0" xmlns="http://www.w3.org/2000/svg"
 width="3182.000000pt" height="3182.000000pt" viewBox="0 0 3182.000000 3182.000000"
 preserveAspectRatio="xMidYMid meet">
<metadata>
Created by potrace 1.14, written by Peter Selinger 2001-2017
</metadata>
<g transform="translate(0.000000,3182.000000) scale(0.100000,-0.100000)"
fill="#000000" stroke="none">
<path d="M2046 20543 c-1 -1 -78 -3 -171 -4 -122 -1 -192 -7 -254 -21 -333
-74 -584 -315 -684 -656 l-22 -77 -3 -3845 c-3 -4275 -8 -3920 65 -4103 107
-266 329 -461 615 -539 l83 -23 4215 0 c2318 0 4239 3 4267 8 75 10 197 53
272 94 252 136 424 378 470 658 12 72 10 7711 -2 7765 -50 224 -171 422 -337
548 -19 15 -37 29 -40 33 -12 13 -125 73 -183 95 -116 47 -210 61 -403 63
-246 3 -7885 6 -7888 4z"/>
<path d="M14631 17714 c-1 -6 -23 -51 -49 -100 -27 -49 -75 -138 -107 -199
-69 -132 -129 -244 -255 -480 -21 -38 -58 -108 -83 -155 -24 -47 -100 -188
-167 -315 -67 -126 -145 -273 -172 -325 -28 -52 -63 -117 -78 -145 -15 -27
-55 -104 -90 -170 -35 -66 -66 -124 -70 -130 -4 -5 -38 -68 -75 -140 -37 -71
-82 -157 -100 -190 -18 -33 -52 -98 -77 -145 -120 -225 -224 -421 -256 -480
-19 -36 -57 -108 -84 -160 -28 -52 -63 -117 -78 -145 -15 -27 -58 -107 -95
-177 l-67 -128 415 0 414 0 133 265 c72 146 135 265 138 266 4 1 367 2 806 2
519 1 804 -1 813 -8 7 -5 41 -65 76 -131 34 -67 94 -183 132 -258 l70 -136
413 0 413 0 -47 88 c-90 167 -122 228 -209 392 -48 91 -107 201 -130 245 -108
203 -201 377 -242 455 -25 47 -60 112 -78 145 -18 33 -63 119 -100 190 -37 72
-71 135 -75 140 -4 6 -38 69 -75 140 -37 72 -80 153 -95 180 -15 28 -53 100
-85 160 -32 61 -65 124 -75 140 -10 17 -43 80 -75 140 -32 61 -76 144 -98 185
-22 41 -60 113 -85 160 -24 47 -62 117 -82 155 -21 39 -59 111 -85 160 -26 50
-65 122 -86 161 -21 39 -67 125 -101 191 -66 127 -97 175 -97 157z m60 -1602
c26 -53 125 -256 221 -449 96 -194 169 -353 164 -354 -53 -5 -869 -2 -872 2
-2 4 17 49 42 99 48 97 197 403 318 652 39 81 73 148 76 148 3 0 26 -44 51
-98z"/>
<path d="M17970 15927 l0 -1797 380 0 380 0 0 830 0 831 46 -53 c26 -29 56
-64 68 -78 11 -14 62 -73 112 -130 50 -58 101 -118 115 -134 13 -16 29 -34 34
-40 6 -6 37 -43 70 -81 33 -39 62 -72 65 -75 3 -3 30 -34 59 -70 30 -36 67
-78 83 -95 15 -16 113 -130 218 -252 173 -201 210 -239 210 -215 0 4 15 23 33
42 29 32 108 122 168 194 13 16 35 41 49 56 14 15 45 51 69 80 25 29 50 58 55
64 6 6 92 106 191 221 98 116 182 212 185 215 3 3 30 34 60 70 30 36 84 99
120 140 36 41 78 90 92 108 15 17 28 29 30 25 2 -5 3 -378 3 -831 l-1 -822
379 2 378 3 0 1715 c0 2107 2 1879 -16 1856 -8 -10 -27 -32 -42 -50 -15 -17
-62 -69 -103 -116 -41 -46 -79 -90 -85 -96 -5 -6 -39 -44 -75 -85 -36 -40 -77
-86 -92 -102 -15 -15 -36 -39 -47 -54 -12 -14 -42 -49 -68 -78 -61 -66 -84
-91 -223 -250 -63 -71 -117 -132 -120 -135 -3 -3 -39 -43 -80 -90 -41 -47 -77
-87 -80 -90 -3 -3 -36 -41 -75 -85 -38 -44 -72 -82 -75 -85 -3 -3 -35 -39 -70
-80 -36 -41 -70 -79 -76 -85 -7 -5 -33 -35 -59 -65 -26 -30 -61 -71 -79 -90
-18 -19 -85 -96 -151 -170 -65 -74 -126 -142 -134 -151 -9 -9 -28 -30 -43 -47
-15 -17 -33 -29 -40 -26 -7 3 -30 27 -52 52 -21 26 -64 76 -96 112 -31 36 -97
110 -145 165 -49 55 -91 102 -94 105 -3 3 -37 41 -75 85 -39 44 -75 85 -80 90
-6 6 -40 44 -76 85 -36 41 -69 80 -75 86 -65 72 -277 311 -331 373 -16 19 -34
39 -39 45 -16 17 -171 191 -375 421 -68 77 -136 154 -151 170 -15 17 -60 68
-100 114 -41 47 -86 99 -101 115 l-28 30 0 -1797z"/>
<path d="M26388 16795 c-2 -1 -33 -5 -70 -9 -37 -3 -91 -11 -119 -17 -28 -6
-56 -12 -62 -13 -88 -18 -265 -82 -368 -133 -101 -50 -172 -110 -226 -191 -91
-137 -118 -245 -117 -472 1 -225 48 -347 190 -486 141 -138 316 -221 589 -280
11 -2 31 -6 45 -9 14 -3 61 -12 105 -20 44 -8 90 -17 102 -19 11 -3 43 -7 70
-11 125 -17 192 -31 272 -55 121 -36 164 -81 163 -168 -2 -90 -88 -165 -234
-202 -68 -18 -218 -20 -318 -5 -200 30 -433 119 -623 238 -26 16 -49 28 -51
26 -2 -2 -85 -113 -186 -247 -172 -229 -181 -244 -164 -258 215 -170 573 -329
809 -360 28 -3 53 -8 57 -10 30 -18 485 -26 608 -10 143 18 323 75 424 134
267 155 391 385 389 717 -1 217 -58 368 -186 496 -139 139 -283 203 -602 269
-244 50 -252 52 -354 66 -128 17 -313 76 -347 108 -46 46 -59 118 -31 172 20
40 77 77 157 105 54 19 86 23 190 23 69 -1 152 -6 185 -13 121 -25 283 -89
450 -177 48 -25 90 -42 94 -37 4 4 23 28 42 53 19 25 39 52 46 60 76 96 272
357 273 362 0 13 -215 149 -321 203 -154 77 -358 139 -534 161 -38 5 -342 13
-347 9z"/>
<path d="M29508 16795 c-2 -2 -37 -5 -78 -8 -246 -20 -508 -100 -700 -216 -82
-50 -83 -50 -179 -132 -238 -202 -380 -462 -416 -763 -13 -105 -14 -119 -16
-221 -1 -96 9 -273 16 -285 2 -3 6 -26 10 -50 8 -56 46 -187 74 -258 52 -130
148 -269 270 -389 79 -78 184 -163 201 -163 6 0 10 -3 10 -7 0 -5 10 -13 23
-19 12 -6 52 -27 90 -47 37 -19 67 -33 67 -30 0 3 6 1 13 -4 28 -23 248 -91
369 -113 160 -31 362 -32 563 -5 61 9 175 36 209 50 17 7 36 14 41 15 80 18
253 109 370 195 115 84 315 292 315 327 0 4 -35 27 -77 51 -43 24 -165 94
-272 156 l-194 112 -36 -33 c-19 -18 -38 -35 -41 -38 -12 -12 -107 -87 -137
-107 -85 -60 -196 -101 -318 -118 -50 -7 -222 -7 -255 0 -14 3 -48 9 -77 15
-70 12 -194 56 -267 92 -72 36 -162 125 -197 193 -33 63 -63 154 -54 163 3 3
468 7 1033 7 l1027 0 6 40 c8 47 4 432 -6 490 -33 211 -127 426 -262 596 -47
60 -197 199 -264 246 -202 139 -458 232 -689 249 -118 8 -170 11 -172 9z m168
-640 c247 -54 435 -236 479 -464 l4 -21 -655 0 c-744 0 -670 -11 -636 92 23
70 65 140 115 195 49 53 161 129 230 155 133 51 339 70 463 43z"/>
<path d="M22420 16740 l-45 -5 0 -835 c1 -724 5 -919 19 -990 1 -8 7 -37 11
-65 5 -27 10 -52 10 -55 1 -3 5 -18 9 -35 117 -457 459 -689 998 -679 257 5
467 83 642 239 43 39 42 41 41 -75 l-1 -110 358 0 358 0 0 1305 0 1305 -42 1
c-49 0 -572 0 -633 -1 l-40 0 -1 -793 c-1 -883 -1 -875 -69 -1014 -54 -109
-160 -199 -284 -241 -70 -24 -214 -27 -303 -6 -178 42 -301 159 -334 319 -2
11 -7 34 -11 50 -4 17 -7 400 -8 852 0 452 -3 825 -7 828 -7 8 -604 12 -668 5z"/>
<path d="M17001 14844 c-163 -34 -295 -183 -305 -344 -7 -124 32 -218 123
-303 79 -74 171 -107 281 -102 118 5 217 52 289 138 95 112 116 266 54 393
-83 169 -258 255 -442 218z"/>
</g>
</svg>
