
        <svg xmlns="http://www.w3.org/2000/svg" xmlns:xlink="http://www.w3.org/1999/xlink" version="1.1" width="3181.8181818181824" 
        height="1109.0909090909092" viewBox="0 0 3181.8181818181824 1109.0909090909092">
			
			<g transform="scale(9.090909090909092) translate(10, 10)">
				<defs id="SvgjsDefs1221"></defs><g id="SvgjsG1222" featureKey="symbolGroupContainer" transform="matrix(1,0,0,1,0,0)" fill="#08160f"><rect xmlns="http://www.w3.org/2000/svg" width="110" height="102" rx="10" ry="10"></rect></g><g id="SvgjsG1223" featureKey="mugSzh-0" transform="matrix(0.7001272356472253,0,0,0.7001272356472253,19.997081595772638,16.082989572995213)" fill="#ffffff"><title xmlns="http://www.w3.org/2000/svg">web</title><g xmlns="http://www.w3.org/2000/svg" data-name="Go to Web"><path d="M0.54,44.31c-2.19,11.82,2,30.79,18.77,42.33,16,11,36.26,9.54,49.35.41-2.39.5-4.72,1.13-7.09,1.45-14.37,2-27.78-.46-39.65-9.21A34.28,34.28,0,0,1,10.36,64.48c-0.14-.34-0.27-0.68-0.4-1-0.05-.15-0.08-0.3-0.2-0.79C19,73.38,30.57,79,44.07,80.72s26.24-.4,37.73-8.58l5.37,5.42c0.34,0.35.68,0.7,1,1,1.41,1.34,3,.87,3.43-1,0.77-3.41,1.5-6.82,2.24-10.23q3-13.62,6-27.24c0.53-2.42-.38-3.33-2.78-2.8L59.85,45.5a2.17,2.17,0,0,0-2,1.4,2.21,2.21,0,0,0,.84,2.26c2.12,2.08,4.2,4.18,6.36,6.34a31.58,31.58,0,0,1-7.6,4.88,49.11,49.11,0,0,1-25,4.19A42.93,42.93,0,0,1,13.2,58.52,31.78,31.78,0,0,1,1,45.1C0.84,44.86.71,44.63,0.54,44.31Z"></path><path d="M62.31,32.65A1.07,1.07,0,0,0,61,31.72c-4.51,0-9,0-13.54,0-0.34,0-.69.06-1,0.09V47.94h6.43L54.7,52H46.37v7.72l-4,.57V52.09H24l0.39,5.84c-1.3-.52-2.47-0.94-3.6-1.47a1.33,1.33,0,0,1-.56-0.92C20.1,54.39,20,53.23,19.93,52c-1.72,0-3.35-.1-5,0a4.84,4.84,0,0,1-4-1.41C10.14,49.79,9.21,49,8.3,48.2l0.19-.3H19.66l2.5-16.17c-3,0-6.28,0-9.52,0a1.28,1.28,0,0,0-.81.73,63.77,63.77,0,0,0-2.76,6.74c-0.77,2.54-1.16,5.19-1.74,7.88a18,18,0,0,1-4.64-8.77,7.87,7.87,0,0,1,.45-4.66C10.32,17.13,22.85,7.49,40.85,5.8,54.58,4.52,66.43,9.26,76.17,19.06a43.23,43.23,0,0,1,9.95,15.89c-2.34.51-4.59,1-6.85,1.46a1.05,1.05,0,0,1-.72-0.56c-0.51-1-1-2-1.42-3.1a1.5,1.5,0,0,0-1.66-1c-2.11.07-4.23,0-6.34,0H66.35L67.92,39l-3.84.85C63.47,37.36,62.86,35,62.31,32.65Zm-21,15.28c0.28,0,.56,0,0.94-0.07v-16a6.63,6.63,0,0,0-.81-0.1H27.81a1,1,0,0,0-1.29.74,56.78,56.78,0,0,0-2.43,15,2.61,2.61,0,0,0,.11.49H41.35Zm0.94-20.32V13.78c-5.48.32-11.64,7.6-13.81,13.84H42.29Zm4.18-.05H60.17c-0.58-5.27-9-13.78-13.71-13.79V27.57Zm11.12-12.1a4.72,4.72,0,0,0,.35.61,34.8,34.8,0,0,1,6.48,10.51A1.44,1.44,0,0,0,66,27.68c2.51-.07,5,0,7.85,0A37.38,37.38,0,0,0,57.58,15.47ZM14.93,27.66c3,0,5.75,0,8.48,0A0.85,0.85,0,0,0,24,27.23a41.52,41.52,0,0,1,6.9-11.52A35.68,35.68,0,0,0,14.93,27.66Z"></path></g></g><g id="SvgjsG1224" featureKey="PPkF4s-0" transform="matrix(2.6212321362915922,0,0,2.6212321362915922,130.1572725282885,18.103537689461227)" fill="#ffffff"><path d="M7.96 4.92 l8.02 15.08 l-3.46 0 l-1.16 -2.24 l-6.82 0 l-1.12 2.24 l-3.48 0 z M9.84 15.059999999999999 l-1.88 -3.82 l-1.86 3.82 l3.74 0 z M19.39 19.69 q-0.49 0.47 -1.17 0.47 t-1.16 -0.47 t-0.48 -1.13 q0 -0.64 0.48 -1.12 t1.16 -0.48 t1.17 0.48 t0.49 1.12 q0 0.66 -0.49 1.13 z M37.260000000000005 20 l-3.18 0 l0 -6.98 l-4.48 5.2 l-4.48 -5.2 l0 6.98 l-3.18 0 l0 -15.08 l7.66 8.64 l7.66 -8.64 l0 15.08 z M40.42 15.54 l0 -6.5 l3.02 0 l0 6.5 q0 1.18 0.59 1.69 t1.55 0.51 q0.84 0 1.5 -0.65 t0.6 -2.23 l0 -5.82 l3 0 l0 10.96 l-3 0 l0 -0.94 q-0.54 0.56 -1.31 0.87 t-1.63 0.31 q-4.32 0 -4.32 -4.7 z M52.98 18.54 l1.56 -2.08 q0.72 0.5 1.68 0.84 t1.88 0.34 q0.68 0 1.13 -0.28 t0.45 -0.7 t-0.51 -0.59 t-0.99 -0.24 t-0.62 -0.09 q-1.2 -0.2 -2.07 -0.48 t-1.58 -1 t-0.71 -1.98 q0 -2.08 1.51 -2.78 t3.03 -0.7 q1.3 0 2.4 0.38 t2.18 1.2 l-1.56 2.04 q-0.78 -0.46 -1.54 -0.74 t-1.58 -0.28 q-0.5 0 -0.97 0.22 t-0.47 0.6 q0 0.48 0.65 0.68 t1.43 0.3 q1.4 0.24 2.24 0.5 t1.49 0.97 t0.65 2.01 q0 1.72 -1.18 2.65 t-3.34 0.93 q-3 0 -5.16 -1.72 z M67.85 19.74 q-1.37 -0.54 -2.35 -1.83 t-0.98 -3.37 t0.99 -3.36 t2.37 -1.82 t2.62 -0.54 q1.44 0 2.74 0.64 t2.13 1.88 t0.87 2.94 q0 0.52 -0.02 0.9 t-0.04 0.48 l-8.68 0 q0.24 1.16 1.2 1.58 t1.8 0.42 q1.08 0 1.72 -0.39 t1.1 -0.89 l2.32 1.34 q-1.88 2.56 -5.14 2.56 q-1.28 0 -2.65 -0.54 z M68.46 12.05 q-0.78 0.61 -0.88 1.49 l5.5 0 q-0.06 -0.52 -0.4 -1 t-0.91 -0.79 t-1.29 -0.31 q-1.24 0 -2.02 0.61 z"></path></g>
			</g>
		</svg>
	